<svg width="49" height="48" viewBox="0 0 49 48" fill="none" xmlns="http://www.w3.org/2000/svg">
<path d="M8.16666 40C7.04375 40 6.08246 39.6083 5.28281 38.825C4.48315 38.0417 4.08333 37.1 4.08333 36V12C4.08333 10.9 4.48315 9.95833 5.28281 9.175C6.08246 8.39167 7.04375 8 8.16666 8H20.4167L24.5 12H40.8333C41.9562 12 42.9175 12.3917 43.7172 13.175C44.5168 13.9583 44.9167 14.9 44.9167 16V36C44.9167 37.1 44.5168 38.0417 43.7172 38.825C42.9175 39.6083 41.9562 40 40.8333 40H8.16666ZM8.16666 36H40.8333V16H22.8156L18.7323 12H8.16666V36Z" fill="#1D1B20"/>
</svg>
